<svg id="Layer_1" data-name="Layer 1" xmlns="http://www.w3.org/2000/svg" viewBox="0 0 184 23"><defs><style>.cls-1{fill:#0f0f0f;}.cls-2{fill:#e60a14;}.cls-3{fill:#686565;}</style></defs><polygon class="cls-1" points="154.34 21.93 154.34 1.07 169.41 1.07 169.41 5.96 159.23 5.96 159.23 9.05 169.41 9.05 169.41 13.95 159.23 13.95 159.23 17.04 169.41 17.04 169.41 21.93 154.34 21.93"/><path class="cls-1" d="M141.28,21.93h-7.53V1.07h7.53a13,13,0,0,1,4.34.72,10.87,10.87,0,0,1,3.61,2.08,9.81,9.81,0,0,1,2.46,3.29,10,10,0,0,1,.9,4.31,10,10,0,0,1-3.33,7.61,10.65,10.65,0,0,1-3.59,2.11,13,13,0,0,1-4.39.74M138.65,17h2.63a7.81,7.81,0,0,0,2.87-.47,5.47,5.47,0,0,0,2-1.25,5.06,5.06,0,0,0,1.17-1.78,5.71,5.71,0,0,0,.38-2,5.8,5.8,0,0,0-.38-2,5,5,0,0,0-1.17-1.77,5.47,5.47,0,0,0-2-1.25A7.81,7.81,0,0,0,141.28,6h-2.63Z"/><path class="cls-2" d="M132,11.55a10.35,10.35,0,0,1-6.28,9.57,10.1,10.1,0,0,1-4,.81,9.93,9.93,0,0,1-4-.81,10.43,10.43,0,0,1-3.27-2.23,10.57,10.57,0,0,1-2.21-3.3,10.09,10.09,0,0,1-.81-4,10.19,10.19,0,0,1,.8-4,10.69,10.69,0,0,1,2.18-3.32,10.3,10.3,0,0,1,3.26-2.28,9.86,9.86,0,0,1,4-.84H132Zm-4.82,0V5.89h-5.51a5.34,5.34,0,0,0-3.87,1.64,5.83,5.83,0,0,0-1.17,1.8,5.81,5.81,0,0,0,0,4.41,5.19,5.19,0,0,0,1.16,1.76,5.42,5.42,0,0,0,3.89,1.61,5.32,5.32,0,0,0,2.17-.43,5.8,5.8,0,0,0,1.75-1.18,5.22,5.22,0,0,0,1.17-1.76,5.69,5.69,0,0,0,.42-2.19"/><path class="cls-1" d="M109.46,15.22A10.15,10.15,0,0,1,107.91,18a10.71,10.71,0,0,1-2.24,2.12,10.23,10.23,0,0,1-5.9,1.85,10.1,10.1,0,0,1-4-.81,10.25,10.25,0,0,1-5.44-5.54,10.17,10.17,0,0,1-.8-4,10.27,10.27,0,0,1,.81-4.07,10.94,10.94,0,0,1,2.21-3.33A10.37,10.37,0,0,1,95.8,1.9a9.78,9.78,0,0,1,4-.83,9.9,9.9,0,0,1,3.12.5,10.56,10.56,0,0,1,2.75,1.37A10.09,10.09,0,0,1,107.9,5a10.65,10.65,0,0,1,1.53,2.74h-5.54a5.55,5.55,0,0,0-1.8-1.38,5.19,5.19,0,0,0-2.29-.51,5.29,5.29,0,0,0-2.12.43,5.23,5.23,0,0,0-1.75,1.21,5.83,5.83,0,0,0-1.17,1.8,5.87,5.87,0,0,0,0,4.41A5.34,5.34,0,0,0,95.9,15.5a5.57,5.57,0,0,0,1.75,1.18,5.58,5.58,0,0,0,4.48-.08A5.56,5.56,0,0,0,104,15.22Z"/><polygon class="cls-1" points="75.18 1.08 79.99 9.04 84.72 1.04 90.35 1.02 82.42 14.41 82.45 21.93 77.63 21.95 77.61 14.43 69.58 1.1 75.18 1.08"/><polygon class="cls-1" points="49.49 1.07 56.3 15.85 63.07 1.07 68.13 1.07 68.13 21.93 63.31 21.93 63.31 12.09 58.92 21.93 53.65 21.93 49.25 12.09 49.25 21.93 44.44 21.93 44.44 1.07 49.49 1.07"/><path class="cls-1" d="M32.24,1A10.52,10.52,0,1,0,42.76,11.5,10.52,10.52,0,0,0,32.24,1m0,16a5.49,5.49,0,1,1,5.49-5.49A5.49,5.49,0,0,1,32.24,17"/><path class="cls-1" d="M10.42,9.65h9.66L20,12.18a11.24,11.24,0,0,1-.86,4,10,10,0,0,1-2,3.07,9,9,0,0,1-3,2,9.7,9.7,0,0,1-3.77.72,10.34,10.34,0,0,1-4.1-.81,10,10,0,0,1-3.26-2.23A10.31,10.31,0,0,1,.78,15.58a10.52,10.52,0,0,1-.78-4A10.77,10.77,0,0,1,.77,7.5,10.4,10.4,0,0,1,2.89,4.16,9.82,9.82,0,0,1,6.11,1.9a9.93,9.93,0,0,1,4.06-.83A10.32,10.32,0,0,1,13,1.46,9.54,9.54,0,0,1,15.56,2.6a9.4,9.4,0,0,1,2.09,1.84,8.91,8.91,0,0,1,1.49,2.5H13.4a4.34,4.34,0,0,0-1.77-.86,7.44,7.44,0,0,0-1.52-.19A5,5,0,0,0,8,6.32,5.09,5.09,0,0,0,6.35,7.53,5.62,5.62,0,0,0,5.22,9.32a5.8,5.8,0,0,0-.4,2.16,5.89,5.89,0,0,0,.4,2.2,5.51,5.51,0,0,0,1.13,1.79A5.09,5.09,0,0,0,8,16.68a5,5,0,0,0,2.07.43,6.57,6.57,0,0,0,1-.09,5.49,5.49,0,0,0,1.24-.36,4.59,4.59,0,0,0,1.26-.8,3.88,3.88,0,0,0,1-1.39H10.42Z"/><path class="cls-3" d="M176.67,1v.67h-2.23V9.07h-.8V1.71H171.4V1Z"/><path class="cls-3" d="M184,9.07h-.8l-4.45-6.75V9.07H178V1h.8l4.45,6.75V1h.8Z"/></svg>